<svg xmlns="http://www.w3.org/2000/svg" width="39.37" height="40.285" viewBox="0 0 39.37 40.285"><defs><style>.a{fill:#fff;}</style></defs><g transform="translate(-917.731 -102.827)"><path class="a" d="M952.43,120.139a1.635,1.635,0,0,0,.045-.463v-1.721a15.059,15.059,0,1,0-30.118,0v1.721a1.651,1.651,0,0,0,.044.463c-2.6.206-4.67,2.974-4.67,6.348s2.075,6.167,4.688,6.351a3.779,3.779,0,0,0,6.8-2.272v-8.16a3.752,3.752,0,0,0-3.543-3.779v-.672a11.737,11.737,0,1,1,23.474,0v.672a3.752,3.752,0,0,0-3.543,3.779v8.16a3.785,3.785,0,0,0,1.811,3.228,11.573,11.573,0,0,1-5.034,4.139,3.067,3.067,0,0,0-2.288-1.023h-4.261a3.077,3.077,0,0,0-3.074,3.073v.054a3.077,3.077,0,0,0,3.074,3.074H940.1a3.076,3.076,0,0,0,2.8-1.816,15.013,15.013,0,0,0,8.291-7.4,3.722,3.722,0,0,0,1.224-1.055c2.612-.185,4.682-2.963,4.682-6.351s-2.074-6.142-4.671-6.348Zm0,0" transform="translate(0 0)"/></g></svg>