<svg xmlns="http://www.w3.org/2000/svg" width="246.059" height="37.017" viewBox="0 0 246.059 37.017"><defs><style>.a{fill:#fff;}.b{fill:#dc4405;}</style></defs><g transform="translate(-117.348 -503.395)"><path class="a" d="M249.168,505.182l-.632.947a6.744,6.744,0,0,0-4.355-1.625c-2.144,0-3.881,1.061-3.881,3.408,0,1.986,1.286,2.64,4.4,3.34,3.771.881,5.394,2.054,5.394,4.6,0,2.822-2.167,4.739-5.528,4.739a8.416,8.416,0,0,1-5.71-2.03l.7-.948a7.5,7.5,0,0,0,5.033,1.9c2.437,0,4.378-1.241,4.378-3.611,0-1.917-1.467-2.82-4.581-3.519-3.769-.858-5.236-1.941-5.236-4.446,0-2.866,2.077-4.513,5.055-4.513a7.646,7.646,0,0,1,4.965,1.76" transform="translate(39.929 0.009)"/><rect class="a" width="1.152" height="16.586" transform="translate(292.838 503.724)"/><path class="a" d="M265.578,520.595h-.09l-10.945-14.148V520.3H253.39v-16.88h.09l10.945,14.127V503.716h1.152Z" transform="translate(44.705 0.009)"/><path class="a" d="M240.259,534.079h8.734v1.06h-9.885V518.553h1.151Z" transform="translate(40.012 4.98)"/><path class="a" d="M249.349,518.544h-1.376l3.159-2.505h1.535Zm.226,17.421h-1.152V519.38h1.152Z" transform="translate(42.925 4.154)"/><path class="a" d="M267.5,535.212h-1.151v-12.7l-6.387,12.75h-.135l-6.409-12.75v12.7h-1.151v-16.88h.09l7.537,14.736,7.515-14.736h.09Z" transform="translate(44.337 4.907)"/><rect class="a" width="1.151" height="16.585" transform="translate(315.943 523.534)"/><path class="a" d="M283.142,519.614H276.89V535.14H275.74V519.614h-6.252v-1.06h13.654Z" transform="translate(49.995 4.98)"/><path class="a" d="M291.38,519.637h-8.667V526.2h7.673v1.06h-7.673v6.793h8.847v1.083h-10V518.554h9.817Z" transform="translate(53.963 4.98)"/><path class="a" d="M300.469,520.092l-.632.947a6.741,6.741,0,0,0-4.355-1.625c-2.144,0-3.881,1.062-3.881,3.408,0,1.987,1.285,2.641,4.4,3.34,3.771.881,5.394,2.054,5.394,4.6,0,2.82-2.167,4.737-5.528,4.737a8.416,8.416,0,0,1-5.71-2.03l.7-.949a7.5,7.5,0,0,0,5.033,1.9c2.437,0,4.378-1.241,4.378-3.611,0-1.917-1.467-2.82-4.581-3.519-3.769-.858-5.236-1.941-5.236-4.447,0-2.866,2.077-4.513,5.055-4.513a7.647,7.647,0,0,1,4.965,1.76" transform="translate(56.787 4.907)"/><path class="b" d="M224.061,503.395c-10.864,0-19.014,8.2-19.014,18.308v.1c0,10.11,8.047,18.207,18.913,18.207s19.014-8.2,19.014-18.308v-.1c0-10.109-8.047-18.206-18.913-18.206m-3.614,19.917h-7.555a.747.747,0,0,1-.845-.846v-1.691c0-.619.282-.845.845-.845h7.555Zm5.014,9.355c0,.563-.223.789-.787.789h-1.636c-.619,0-.788-.226-.788-.789V510.63c0-.619.169-.9.788-.9h1.636c.563,0,.787.284.787.9Zm10.315-10.2a.746.746,0,0,1-.844.846h-7.666V519.93h7.666c.563,0,.844.226.844.845Z" transform="translate(28.819)"/><path class="a" d="M153.121,503.638h-14.6l-21.177,36.179H131.26l4.149-8.137h20.463l4.232,8.137h12.933Zm-15.086,23.141,7.647-13.138,7.647,13.138Z" transform="translate(0 0.08)"/><path class="a" d="M187.706,516.941a67.989,67.989,0,0,1-13.119-1.024c-3.339-.644-3.5-1.9-3.5-2.122,0-2.106,2.843-3.873,7.961-3.873s9.266,1.71,9.266,3.817a1.742,1.742,0,0,1-.158.659h15.016c-2.8-7.275-13.355-10.77-23.442-10.9-11.2-.149-21.892,3.827-22.084,10.9-.36,13.14,21.073,10.364,25.832,10.856,4.512.259,7.066,1.274,7.066,3.224a2.334,2.334,0,0,1-1.3,2.273c-1.836,1.136-5.354,1.477-6.869,1.477a21.623,21.623,0,0,1-2.317-.135c-.279-.021-.554-.042-.828-.072a11.087,11.087,0,0,1-3.392-.917l-.021-.008c-.17-.076-.319-.162-.481-.244a7.348,7.348,0,0,1-.744-.4,12.932,12.932,0,0,1-3.583-3.11H157.652s-.907,12.131,22.717,12.585,23.534-10.449,23.625-10.9,1.248-12.085-16.287-12.085" transform="translate(13.242 0.032)"/><rect class="a" width="2.034" height="36.388" transform="translate(224.611 503.544)"/><path class="a" d="M303.461,530.335a1.845,1.845,0,1,1-1.839-1.8,1.8,1.8,0,0,1,1.839,1.8m-3.23,0a1.392,1.392,0,0,0,1.4,1.435,1.436,1.436,0,0,0-.011-2.87,1.4,1.4,0,0,0-1.391,1.435m1.107.942h-.417v-1.8a3.634,3.634,0,0,1,.691-.054,1.111,1.111,0,0,1,.623.132.5.5,0,0,1,.175.393.462.462,0,0,1-.371.417v.021a.526.526,0,0,1,.327.438,1.357,1.357,0,0,0,.133.449h-.45a1.546,1.546,0,0,1-.142-.438c-.032-.2-.142-.284-.372-.284h-.2Zm.011-1.019h.2c.23,0,.416-.077.416-.263,0-.163-.12-.274-.383-.274a.927.927,0,0,0-.23.023Z" transform="translate(59.947 8.26)"/></g></svg>