<svg xmlns="http://www.w3.org/2000/svg" width="57.912" height="31" viewBox="0 0 57.912 31"><defs><style>.a{fill:#fff;}</style></defs><g transform="translate(925.25 -1416.5)"><g transform="translate(-925.25 1416.5)"><path class="a" d="M-870.948,1423.313h-50.9a3.407,3.407,0,0,1-3.407-3.407,3.407,3.407,0,0,1,3.407-3.406h50.9a3.407,3.407,0,0,1,3.407,3.406A3.407,3.407,0,0,1-870.948,1423.313Z" transform="translate(925.25 -1416.5)"/></g><g transform="translate(-925.148 1428.593)"><path class="a" d="M-870.649,1458.813h-50.9a3.407,3.407,0,0,1-3.407-3.406,3.407,3.407,0,0,1,3.407-3.407h50.9a3.407,3.407,0,0,1,3.407,3.407A3.407,3.407,0,0,1-870.649,1458.813Z" transform="translate(924.951 -1452)"/></g><g transform="translate(-925.046 1440.687)"><path class="a" d="M-870.35,1494.313h-50.9a3.407,3.407,0,0,1-3.407-3.407,3.407,3.407,0,0,1,3.407-3.407h50.9a3.407,3.407,0,0,1,3.407,3.407A3.407,3.407,0,0,1-870.35,1494.313Z" transform="translate(924.652 -1487.5)"/></g></g></svg>